<svg width="60" height="60" viewBox="0 0 60 60" fill="none" xmlns="http://www.w3.org/2000/svg">
<path d="M32.5695 5.00098C35.382 5.00848 36.8095 5.02348 38.042 5.05848L38.527 5.07598C39.087 5.09598 39.6395 5.12098 40.307 5.15098C42.967 5.27598 44.782 5.69598 46.3745 6.31348C48.0245 6.94848 49.4145 7.80848 50.8045 9.19598C52.0762 10.4453 53.0599 11.9572 53.687 13.626C54.3045 15.2185 54.7245 17.0335 54.8495 19.696C54.8795 20.361 54.9045 20.9135 54.9245 21.476L54.9395 21.961C54.977 23.191 54.992 24.6185 54.997 27.431L54.9995 29.296V32.571C55.0056 34.3945 54.9864 36.218 54.942 38.041L54.927 38.526C54.907 39.0885 54.882 39.641 54.852 40.306C54.727 42.9685 54.302 44.781 53.687 46.376C53.0599 48.0448 52.0762 49.5566 50.8045 50.806C49.5551 52.0777 48.0433 53.0614 46.3745 53.6885C44.782 54.306 42.967 54.726 40.307 54.851L38.527 54.926L38.042 54.941C36.8095 54.976 35.382 54.9935 32.5695 54.9985L30.7045 55.001H27.432C25.6076 55.0074 23.7833 54.9882 21.9595 54.9435L21.4745 54.9285C20.881 54.906 20.2877 54.8802 19.6945 54.851C17.0345 54.726 15.2195 54.306 13.6245 53.6885C11.9565 53.0611 10.4456 52.0774 9.19697 50.806C7.92433 49.5569 6.93974 48.045 6.31197 46.376C5.69447 44.7835 5.27447 42.9685 5.14947 40.306L5.07447 38.526L5.06197 38.041C5.01588 36.218 4.99505 34.3945 4.99947 32.571V27.431C4.99255 25.6075 5.01088 23.784 5.05447 21.961L5.07197 21.476C5.09197 20.9135 5.11697 20.361 5.14697 19.696C5.27197 17.0335 5.69197 15.221 6.30947 13.626C6.9387 11.9565 7.92503 10.4446 9.19947 9.19598C10.4474 7.92485 11.9574 6.94116 13.6245 6.31348C15.2195 5.69598 17.032 5.27598 19.6945 5.15098C20.3595 5.12098 20.9145 5.09598 21.4745 5.07598L21.9595 5.06098C23.7825 5.01656 25.606 4.99739 27.4295 5.00348L32.5695 5.00098ZM29.9995 17.501C26.6843 17.501 23.5048 18.8179 21.1606 21.1621C18.8164 23.5063 17.4995 26.6858 17.4995 30.001C17.4995 33.3162 18.8164 36.4956 21.1606 38.8398C23.5048 41.184 26.6843 42.501 29.9995 42.501C33.3147 42.501 36.4941 41.184 38.8383 38.8398C41.1825 36.4956 42.4995 33.3162 42.4995 30.001C42.4995 26.6858 41.1825 23.5063 38.8383 21.1621C36.4941 18.8179 33.3147 17.501 29.9995 17.501ZM29.9995 22.501C30.9844 22.5008 31.9597 22.6946 32.8697 23.0714C33.7797 23.4482 34.6066 24.0005 35.3031 24.6968C35.9997 25.3931 36.5523 26.2198 36.9293 27.1297C37.3064 28.0396 37.5006 29.0148 37.5007 29.9997C37.5009 30.9846 37.3071 31.9599 36.9303 32.8699C36.5535 33.78 36.0012 34.6068 35.3049 35.3034C34.6086 35.9999 33.7819 36.5525 32.872 36.9296C31.9621 37.3067 30.9869 37.5008 30.002 37.501C28.0128 37.501 26.1052 36.7108 24.6987 35.3043C23.2921 33.8978 22.502 31.9901 22.502 30.001C22.502 28.0119 23.2921 26.1042 24.6987 24.6977C26.1052 23.2912 28.0128 22.501 30.002 22.501M43.127 13.751C42.2982 13.751 41.5033 14.0802 40.9173 14.6663C40.3312 15.2523 40.002 16.0472 40.002 16.876C40.002 17.7048 40.3312 18.4996 40.9173 19.0857C41.5033 19.6717 42.2982 20.001 43.127 20.001C43.9558 20.001 44.7506 19.6717 45.3367 19.0857C45.9227 18.4996 46.252 17.7048 46.252 16.876C46.252 16.0472 45.9227 15.2523 45.3367 14.6663C44.7506 14.0802 43.9558 13.751 43.127 13.751Z" fill="black"/>
</svg>
