<svg width="16" height="16" viewBox="0 0 16 16" fill="none" xmlns="http://www.w3.org/2000/svg">
<path fill-rule="evenodd" clip-rule="evenodd" d="M11.7701 16.001C10.6161 15.9585 7.34581 15.5066 3.92082 12.0824C0.496633 8.65739 0.0454705 5.38786 0.00219731 4.23311C-0.0619111 2.47334 1.28597 0.764047 2.843 0.0965184C3.0305 0.0155551 3.23582 -0.0152701 3.43883 0.00706762C3.64184 0.0294054 3.83555 0.104139 4.00096 0.223934C5.28312 1.15831 6.16782 2.5719 6.9275 3.68338C7.09465 3.92758 7.16612 4.22473 7.12829 4.51823C7.09046 4.81173 6.94597 5.08105 6.72236 5.27487L5.15891 6.43603C5.08338 6.49058 5.03021 6.57069 5.00928 6.66147C4.98835 6.75226 5.00109 6.84756 5.04512 6.92967C5.39932 7.57316 6.02919 8.53158 6.7504 9.2528C7.47162 9.97402 8.47572 10.6456 9.16408 11.0398C9.25039 11.0883 9.35198 11.1018 9.44797 11.0777C9.54396 11.0535 9.62705 10.9935 9.68016 10.91L10.6979 9.36098C10.885 9.11244 11.161 8.94593 11.4681 8.89634C11.7752 8.84675 12.0896 8.91791 12.3455 9.09493C13.473 9.87545 14.7888 10.7449 15.752 11.9782C15.8815 12.1448 15.9639 12.3431 15.9906 12.5525C16.0172 12.7618 15.9871 12.9745 15.9035 13.1682C15.2327 14.7333 13.5355 16.0659 11.7701 16.001Z" fill="black"/>
</svg>
