<svg width="60" height="61" viewBox="0 0 60 61" fill="none" xmlns="http://www.w3.org/2000/svg">
<path d="M30.002 5.03375C43.8095 5.03375 55.002 16.2263 55.002 30.0338C55.002 43.8413 43.8095 55.0338 30.002 55.0338C25.5839 55.0414 21.2434 53.8721 17.427 51.6463L5.01199 55.0338L8.39199 42.6138C6.16439 38.7961 4.99425 34.4538 5.00199 30.0338C5.00199 16.2263 16.1945 5.03375 30.002 5.03375ZM21.482 18.2838L20.982 18.3038C20.6587 18.326 20.3429 18.4109 20.052 18.5538C19.7809 18.7075 19.5334 18.8995 19.317 19.1238C19.017 19.4063 18.847 19.6513 18.6645 19.8888C17.7398 21.091 17.2419 22.567 17.2495 24.0838C17.2545 25.3088 17.5745 26.5013 18.0745 27.6163C19.097 29.8713 20.7795 32.2588 22.9995 34.4713C23.5345 35.0038 24.0595 35.5388 24.6245 36.0363C27.3831 38.4648 30.6702 40.2162 34.2245 41.1513L35.6445 41.3688C36.107 41.3938 36.5695 41.3588 37.0345 41.3363C37.7625 41.2979 38.4732 41.1008 39.117 40.7588C39.4441 40.5896 39.7636 40.4061 40.0745 40.2088C40.0745 40.2088 40.1803 40.1371 40.387 39.9837C40.7245 39.7337 40.932 39.5563 41.212 39.2638C41.422 39.0471 41.597 38.7954 41.737 38.5088C41.932 38.1013 42.127 37.3237 42.207 36.6763C42.267 36.1813 42.2495 35.9113 42.242 35.7438C42.232 35.4763 42.0095 35.1988 41.767 35.0813L40.312 34.4288C40.312 34.4288 38.137 33.4813 36.807 32.8763C36.6678 32.8156 36.5187 32.7809 36.367 32.7738C36.1959 32.7559 36.023 32.7749 35.86 32.8297C35.6969 32.8845 35.5476 32.9737 35.422 33.0913C35.4095 33.0863 35.242 33.2288 33.4345 35.4188C33.3307 35.5582 33.1878 35.6635 33.024 35.7214C32.8602 35.7793 32.6828 35.7871 32.5145 35.7438C32.3516 35.7003 32.192 35.6452 32.037 35.5788C31.727 35.4488 31.6195 35.3988 31.407 35.3088C29.9717 34.6835 28.6431 33.8374 27.4695 32.8013C27.1545 32.5263 26.862 32.2263 26.562 31.9363C25.5785 30.9943 24.7214 29.9287 24.012 28.7663L23.8645 28.5288C23.7601 28.3682 23.6746 28.1963 23.6095 28.0163C23.5145 27.6488 23.762 27.3538 23.762 27.3538C23.762 27.3538 24.3695 26.6888 24.652 26.3288C24.927 25.9788 25.1595 25.6388 25.3095 25.3963C25.6045 24.9213 25.697 24.4338 25.542 24.0563C24.842 22.3463 24.1187 20.6454 23.372 18.9538C23.2245 18.6188 22.787 18.3788 22.3895 18.3313C22.2545 18.3146 22.1195 18.3013 21.9845 18.2913C21.6488 18.272 21.3122 18.2753 20.977 18.3013L21.482 18.2838Z" fill="black"/>
</svg>
