<svg width="24" height="21" viewBox="0 0 24 21" fill="none" xmlns="http://www.w3.org/2000/svg">
<path d="M0 1.44C0 1.05809 0.151714 0.691819 0.421767 0.421766C0.691819 0.151714 1.05809 0 1.44 0H21.6C21.9819 0 22.3482 0.151714 22.6182 0.421766C22.8883 0.691819 23.04 1.05809 23.04 1.44C23.04 1.82191 22.8883 2.18818 22.6182 2.45823C22.3482 2.72829 21.9819 2.88 21.6 2.88H1.44C1.05809 2.88 0.691819 2.72829 0.421767 2.45823C0.151714 2.18818 0 1.82191 0 1.44ZM0 10.08C0 9.69809 0.151714 9.33182 0.421767 9.06177C0.691819 8.79171 1.05809 8.64 1.44 8.64H21.6C21.9819 8.64 22.3482 8.79171 22.6182 9.06177C22.8883 9.33182 23.04 9.69809 23.04 10.08C23.04 10.4619 22.8883 10.8282 22.6182 11.0982C22.3482 11.3683 21.9819 11.52 21.6 11.52H1.44C1.05809 11.52 0.691819 11.3683 0.421767 11.0982C0.151714 10.8282 0 10.4619 0 10.08ZM1.44 17.28C1.05809 17.28 0.691819 17.4317 0.421767 17.7018C0.151714 17.9718 0 18.3381 0 18.72C0 19.1019 0.151714 19.4682 0.421767 19.7382C0.691819 20.0083 1.05809 20.16 1.44 20.16H21.6C21.9819 20.16 22.3482 20.0083 22.6182 19.7382C22.8883 19.4682 23.04 19.1019 23.04 18.72C23.04 18.3381 22.8883 17.9718 22.6182 17.7018C22.3482 17.4317 21.9819 17.28 21.6 17.28H1.44Z" fill="white"/>
</svg>
