<svg width="12" height="12" viewBox="0 0 12 12" fill="none" xmlns="http://www.w3.org/2000/svg">
<path d="M11.2838 0.159394C11.0635 0.0165467 10.7955 -0.0329685 10.5388 0.0217376C10.282 0.0764437 10.0575 0.230891 9.91459 0.451114L4.36729 9.00174L1.66195 6.50034C1.56651 6.41209 1.45461 6.3435 1.33265 6.29849C1.2107 6.25348 1.08107 6.23293 0.951174 6.23802C0.688835 6.24829 0.441322 6.36236 0.263084 6.55512C0.084847 6.74789 -0.00951428 7.00356 0.000758961 7.2659C0.0110322 7.52824 0.125098 7.77576 0.317864 7.95399L3.86998 11.2382C3.86998 11.2382 3.97195 11.3259 4.01914 11.3566C4.12822 11.4274 4.25017 11.476 4.37802 11.4997C4.50588 11.5233 4.63715 11.5215 4.76432 11.4944C4.89149 11.4673 5.01209 11.4155 5.11921 11.3418C5.22633 11.2681 5.31789 11.174 5.38864 11.0649L11.5755 1.52856C11.7183 1.30831 11.7678 1.04033 11.7131 0.783572C11.6584 0.526812 11.504 0.302294 11.2838 0.159394Z" fill="white"/>
</svg>
