<svg width="12" height="12" viewBox="0 0 12 12" fill="none" xmlns="http://www.w3.org/2000/svg">
<g clip-path="url(#clip0_0_224)">
<path d="M11.3697 0.452362C11.1494 0.309515 10.8815 0.26 10.6247 0.314706C10.368 0.369412 10.1434 0.52386 10.0005 0.744082L4.45323 9.29471L1.74789 6.79331C1.65244 6.70506 1.54055 6.63647 1.41859 6.59146C1.29664 6.54645 1.16701 6.5259 1.03711 6.53099C0.774773 6.54126 0.527259 6.65533 0.349022 6.84809C0.170784 7.04086 0.0764232 7.29653 0.0866965 7.55887C0.0969697 7.82121 0.211036 8.06873 0.403802 8.24696L3.95592 11.5311C3.95592 11.5311 4.05789 11.6189 4.10508 11.6496C4.21415 11.7204 4.3361 11.769 4.46396 11.7926C4.59182 11.8163 4.72308 11.8145 4.85026 11.7874C4.97743 11.7603 5.09802 11.7084 5.20515 11.6347C5.31227 11.561 5.40382 11.467 5.47458 11.3579L11.6614 1.82153C11.8043 1.60128 11.8538 1.3333 11.7991 1.07654C11.7444 0.819781 11.5899 0.595262 11.3697 0.452362Z" fill="black"/>
</g>
<defs>
<clipPath id="clip0_0_224">
<rect width="11.88" height="11.88" fill="white"/>
</clipPath>
</defs>
</svg>
