<svg width="27" height="32" viewBox="0 0 27 32" fill="none" xmlns="http://www.w3.org/2000/svg">
<path d="M24.0465 10.9925L6.85502 0.604274C6.13286 0.167952 5.33037 -0.0380659 4.52378 0.00578501C3.71719 0.0496359 2.93326 0.3419 2.24643 0.854822C1.55961 1.36774 0.9927 2.0843 0.599529 2.93644C0.206358 3.78858 -1.74123e-05 4.74801 1.10188e-09 5.72364V25.3617C-1.74123e-05 26.3373 0.206358 27.2967 0.599529 28.1489C0.9927 29.001 1.55961 29.7176 2.24643 30.2305C2.93326 30.7434 3.71719 31.0357 4.52378 31.0795C5.33037 31.1234 6.13286 30.9173 6.85502 30.481L24.0465 20.0928C27.1517 18.2168 27.1517 12.8685 24.0465 10.9925Z" fill="black"/>
</svg>
